<?xml version="1.0" encoding="UTF-8" standalone="no"?>
<!DOCTYPE svg PUBLIC "-//W3C//DTD SVG 20010904//EN"
              "http://www.w3.org/TR/2001/REC-SVG-20010904/DTD/svg10.dtd">

<svg xmlns="http://www.w3.org/2000/svg"
     width="0.266667in" height="0.266667in"
     viewBox="0 0 24 24">
  <path id="Selection"
        fill="none" stroke="black" stroke-width="1"
        d="M 0.00,0.00
           C 0.00,0.00 24.00,0.00 24.00,0.00
             24.00,0.00 24.00,24.00 24.00,24.00
             24.00,24.00 0.00,24.00 0.00,24.00
             0.00,24.00 0.00,0.00 0.00,0.00 Z
           M 12.00,2.00
           C 8.48,6.99 8.35,7.94 2.00,9.00
             5.75,14.68 6.08,14.19 6.00,21.00
             11.73,18.73 12.27,18.73 18.00,21.00
             17.92,14.19 18.25,14.68 22.00,9.00
             15.39,7.89 15.80,6.92 12.00,2.00 Z" />
</svg>
