<svg width="20" height="21" viewBox="0 0 20 21" fill="none" xmlns="http://www.w3.org/2000/svg">
<path d="M4 0.615234H16C17.933 0.615234 19.5 2.18224 19.5 4.11523V16.1152C19.5 18.0482 17.933 19.6152 16 19.6152H4C2.067 19.6152 0.5 18.0482 0.5 16.1152V4.11523C0.5 2.18224 2.067 0.615234 4 0.615234Z" fill="white" stroke="#BC9CFF"/>
<path d="M6.46439 8.40768L10.707 12.6503L9.29282 14.0645L5.05018 9.82189L6.46439 8.40768Z" fill="url(#paint0_linear)"/>
<path d="M13.5355 6.99347L14.9497 8.40768L9.29282 14.0645L7.8786 12.6503L13.5355 6.99347Z" fill="url(#paint1_linear)"/>
<defs>
<linearGradient id="paint0_linear" x1="12.8284" y1="6.28636" x2="7.1715" y2="11.9432" gradientUnits="userSpaceOnUse">
<stop stop-color="#BC9CFF"/>
<stop offset="1" stop-color="#8BA4F9"/>
</linearGradient>
<linearGradient id="paint1_linear" x1="12.8284" y1="6.28636" x2="7.1715" y2="11.9432" gradientUnits="userSpaceOnUse">
<stop stop-color="#BC9CFF"/>
<stop offset="1" stop-color="#8BA4F9"/>
</linearGradient>
</defs>
</svg>
